<svg id="Calque_1" data-name="Calque 1" xmlns="http://www.w3.org/2000/svg" width="180" height="43" viewBox="0 0 180 43"><title>logo-cp-bernard-M</title><path d="M89.47,21.19c0-1.36-.08-1.72-.91-1.79L88,19.34a.29.29,0,0,1,0-.46c1-.09,2.25-.15,4-.15a7.11,7.11,0,0,1,3.11.52,2.43,2.43,0,0,1,1.41,2.31,2.68,2.68,0,0,1-1.89,2.54c0,.18.15.24.35.28a3.05,3.05,0,0,1,2.48,3.08c0,2.15-1.59,3.59-4.92,3.59-.54,0-1.44-.05-2.22-.05s-1.44,0-2.13.05c-.11-.05-.14-.35,0-.46l.33-.05c1-.17,1-.37,1-2.32ZM91,23.65c0,.52,0,.56,1,.52,1.89-.07,2.91-.63,2.91-2.37s-1.35-2.49-2.76-2.49a2.19,2.19,0,0,0-.85.11c-.18,0-.26.15-.26.48ZM91,28a3.61,3.61,0,0,0,.39,2,1.78,1.78,0,0,0,1.46.52c1.65,0,2.91-.74,2.91-2.59,0-1.46-.74-3.16-3.68-3.16-1,0-1.08.11-1.08.48Z" fill="#e41c23"/><path d="M101.89,21.56c0-1.92,0-2.2-1.12-2.33l-.3,0c-.11-.08-.07-.41,0-.47.79,0,1.42.06,2.18.06h3.48a22.83,22.83,0,0,0,2.49-.06,18.41,18.41,0,0,1,.3,2.46.35.35,0,0,1-.46,0c-.28-.87-.45-1.52-1.41-1.76a9,9,0,0,0-1.79-.11H104c-.56,0-.56,0-.56.74v3.7c0,.52.06.52.61.52h1.07a7.25,7.25,0,0,0,1.58-.11c.22-.07.35-.19.44-.65l.15-.76c.09-.11.41-.11.48,0,0,.45-.07,1.17-.07,1.87s.07,1.37.07,1.78c-.07.13-.39.13-.48,0l-.17-.72a.78.78,0,0,0-.57-.7,6.5,6.5,0,0,0-1.43-.09H104c-.55,0-.61,0-.61.5v2.61a3.06,3.06,0,0,0,.35,1.92c.23.22.61.42,2.24.42a5.52,5.52,0,0,0,2.37-.27,4.68,4.68,0,0,0,1.31-1.8.34.34,0,0,1,.46.13,15.18,15.18,0,0,1-.83,2.57c-1.66,0-3.31-.05-5-.05h-1.66c-.8,0-1.42,0-2.52.05-.11-.05-.14-.35,0-.46l.61-.05c1-.1,1.14-.37,1.14-2.32Z" fill="#e41c23"/><path d="M113.93,21.58c0-1.75-.05-2.07-.81-2.16l-.59-.08a.3.3,0,0,1,0-.46c1-.09,2.31-.15,4.12-.15a6.57,6.57,0,0,1,3.09.56,2.75,2.75,0,0,1,1.54,2.59A3.42,3.42,0,0,1,119,25c-.09.11,0,.29.1.44a19.74,19.74,0,0,0,3.72,4.92,2.19,2.19,0,0,0,1.27.52.16.16,0,0,1,0,.26,3.12,3.12,0,0,1-.81.09c-1.58,0-2.52-.46-3.83-2.33-.48-.68-1.24-2-1.82-2.79a1.3,1.3,0,0,0-1.31-.59c-.83,0-.87,0-.87.4v2.33c0,2,0,2.17,1.11,2.32l.39.05a.36.36,0,0,1,0,.46c-.83,0-1.46-.05-2.2-.05s-1.44,0-2.31.05c-.11-.05-.15-.33,0-.46l.47-.05c1.07-.13,1.1-.37,1.1-2.32Zm1.52,2.65a1.37,1.37,0,0,0,.06.61,3.53,3.53,0,0,0,1.27.09,3.09,3.09,0,0,0,1.91-.48,2.66,2.66,0,0,0,.92-2.29,2.72,2.72,0,0,0-3-2.85c-1.14,0-1.2.07-1.2.59Z" fill="#e41c23"/><path d="M137.05,27.85c0,.56,0,2.76.06,3.24a.34.34,0,0,1-.35.2c-.22-.31-.76-1-2.37-2.79l-4.29-4.88c-.5-.58-1.76-2.09-2.15-2.5h0a4.35,4.35,0,0,0-.1,1.2v4a14.18,14.18,0,0,0,.34,3.82c.11.21.48.32.94.36l.57.05a.34.34,0,0,1,0,.46c-.84,0-1.48-.05-2.17-.05s-1.27,0-1.92.05a.34.34,0,0,1,0-.46l.5-.05c.43-.06.72-.17.81-.37a17.84,17.84,0,0,0,.24-3.81V21a1.67,1.67,0,0,0-.4-1.33,2,2,0,0,0-1.15-.45l-.31,0a.34.34,0,0,1,0-.47c.78.06,1.76.06,2.09.06a5.48,5.48,0,0,0,.85-.06,25,25,0,0,0,3.17,4.07l1.79,2c1.28,1.42,2.18,2.46,3.05,3.35h0a1.74,1.74,0,0,0,.08-.78v-4c0-.87,0-3.27-.38-3.83-.11-.16-.4-.27-1.14-.37l-.32,0c-.13-.11-.11-.41,0-.47.85,0,1.48.06,2.18.06s1.28,0,1.91-.06a.33.33,0,0,1,0,.47l-.26,0c-.59.1-1,.24-1,.39a15.14,15.14,0,0,0-.28,3.81Z" fill="#e41c23"/><path d="M148,26.71c-.13-.41-.2-.47-.76-.47h-2.79c-.46,0-.57.06-.7.45l-.65,1.94a6.89,6.89,0,0,0-.41,1.54c0,.22.1.33.54.37l.61.05a.29.29,0,0,1,0,.46c-.48,0-1.05,0-1.92-.05-.61,0-1.28,0-1.78.05a.36.36,0,0,1,0-.46l.61-.05a1.24,1.24,0,0,0,1.11-.91c.33-.85.85-2.05,1.63-4.13l1.88-5a2.74,2.74,0,0,0,.32-1.31,2.14,2.14,0,0,0,1-.71.27.27,0,0,1,.28.17c.24.81.53,1.66.81,2.48l2.53,7.44c.54,1.59.78,1.86,1.58,2l.5.05a.37.37,0,0,1,0,.46c-.76,0-1.41-.05-2.24-.05s-1.59,0-2.13.05a.31.31,0,0,1,0-.46l.54-.05c.39,0,.65-.15.65-.34a3.78,3.78,0,0,0-.24-1Zm-3.66-1.65c-.15.43-.13.44.39.44H147c.54,0,.58-.07.41-.57l-1-3c-.15-.45-.31-1-.42-1.17h0a9.87,9.87,0,0,0-.44,1.09Z" fill="#e41c23"/><path d="M155.58,21.58c0-1.75-.05-2.07-.81-2.16l-.59-.08a.3.3,0,0,1,0-.46c1-.09,2.31-.15,4.12-.15a6.57,6.57,0,0,1,3.09.56A2.75,2.75,0,0,1,163,21.88,3.42,3.42,0,0,1,160.63,25c-.09.11,0,.29.1.44a20,20,0,0,0,3.71,4.92,2.24,2.24,0,0,0,1.28.52.16.16,0,0,1,0,.26,3.15,3.15,0,0,1-.82.09c-1.57,0-2.51-.46-3.82-2.33-.49-.68-1.24-2-1.82-2.79a1.3,1.3,0,0,0-1.31-.59c-.83,0-.87,0-.87.4v2.33c0,2,0,2.17,1.11,2.32l.39.05a.36.36,0,0,1,0,.46c-.83,0-1.46-.05-2.2-.05s-1.44,0-2.31.05c-.11-.05-.15-.33,0-.46l.46-.05c1.08-.13,1.11-.37,1.11-2.32Zm1.52,2.65a1.37,1.37,0,0,0,.06.61,3.53,3.53,0,0,0,1.27.09,3.09,3.09,0,0,0,1.91-.48,2.66,2.66,0,0,0,.92-2.29,2.72,2.72,0,0,0-3-2.85c-1.14,0-1.2.07-1.2.59Z" fill="#e41c23"/><path d="M168.75,21.19c0-1.29-.09-1.68-.87-1.79l-.41-.06a.28.28,0,0,1,0-.46c1.57-.09,3.07-.15,4.65-.15a11.73,11.73,0,0,1,4.07.56A5.55,5.55,0,0,1,180,24.75a6.07,6.07,0,0,1-3.24,5.51,8.89,8.89,0,0,1-4.14.89c-1.18,0-2.37-.15-3-.15s-1.44,0-2.31.05a.36.36,0,0,1,0-.46l.43-.05c1.07-.15,1.11-.37,1.11-2.32Zm1.52,6.61a3.36,3.36,0,0,0,.37,2c.4.58,1.11.76,2.27.76,3.59,0,5.2-2.35,5.2-5.79,0-2-1-5.47-5.83-5.47a4.13,4.13,0,0,0-1.83.26c-.15.11-.18.57-.18,1.4Z" fill="#e41c23"/><path d="M31,21.06c0,.48.08.76.29.85a.09.09,0,0,1,0,.14,2.68,2.68,0,0,0-.59.11,9.7,9.7,0,0,1-2.13.31,5,5,0,0,1-3.64-1.33,3.74,3.74,0,0,1-1.09-2.7,4.09,4.09,0,0,1,1.07-2.83,5,5,0,0,1,3.78-1.39,7.81,7.81,0,0,1,1.51.17,2.81,2.81,0,0,0,.74.11,12.81,12.81,0,0,0,.18,1.73c0,.1-.25.11-.32,0a2.18,2.18,0,0,0-2.44-1.7A3.17,3.17,0,0,0,25,18c0,2.29,1.18,4.09,3.58,4.09.73,0,1.18-.16,1.31-.36a1.32,1.32,0,0,0,.12-.68v-.48c0-1,0-1.07-.78-1.15l-.52-.06c-.1-.05-.09-.27,0-.3.34,0,1,0,1.7,0,.47,0,.87,0,1.27,0a.22.22,0,0,1,0,.3l-.19,0c-.5.06-.52.39-.52,1Z" fill="#7b775f"/><path d="M33.93,16.21c0-1.14,0-1.34-.53-1.4L33,14.76c-.08-.06-.08-.25,0-.29.67-.06,1.49-.1,2.66-.1a4.2,4.2,0,0,1,2,.36,1.76,1.76,0,0,1,1,1.67,2.2,2.2,0,0,1-1.49,2c-.06.07,0,.19.06.29a13.19,13.19,0,0,0,2.4,3.17,1.38,1.38,0,0,0,.82.33.1.1,0,0,1,0,.17,2,2,0,0,1-.52.06c-1,0-1.62-.3-2.47-1.5-.31-.45-.8-1.27-1.17-1.81a.86.86,0,0,0-.85-.38c-.53,0-.56,0-.56.27v1.5c0,1.25,0,1.39.72,1.49l.25,0c.07.05.05.26,0,.29l-1.42,0c-.5,0-.93,0-1.49,0-.08,0-.1-.21,0-.29l.3,0c.69-.08.72-.24.72-1.49Zm1,1.7a.87.87,0,0,0,0,.4,2.33,2.33,0,0,0,.82.06A2,2,0,0,0,37,18.06a1.72,1.72,0,0,0,.6-1.48,1.76,1.76,0,0,0-1.91-1.84c-.74,0-.78,0-.78.38Z" fill="#7b775f"/><path d="M40.47,18.43a4.11,4.11,0,0,1,4.24-4.21,3.93,3.93,0,0,1,4.14,4.09,4.07,4.07,0,0,1-4.14,4.16A4,4,0,0,1,40.47,18.43Zm7.19.25c0-2-.87-4.09-3.15-4.09-1.24,0-2.85.84-2.85,3.45,0,1.77.86,4.06,3.21,4.06C46.3,22.1,47.66,21,47.66,18.68Z" fill="#7b775f"/><path d="M56.87,17.4a8.69,8.69,0,0,0-.23-2.47.73.73,0,0,0-.59-.25l-.3,0a.22.22,0,0,1,0-.29c.45,0,.9,0,1.36,0s.82,0,1.25,0a.21.21,0,0,1,0,.29l-.29,0a.7.7,0,0,0-.6.29,11.06,11.06,0,0,0-.16,2.43v1.35a4.16,4.16,0,0,1-.84,2.85,3.13,3.13,0,0,1-2.28.87A3.41,3.41,0,0,1,52,21.81,3.4,3.4,0,0,1,51.08,19V16.18c0-1.24,0-1.44-.71-1.5l-.3,0a.23.23,0,0,1,0-.29c.6,0,1,0,1.48,0s.89,0,1.47,0a.23.23,0,0,1,0,.29l-.28,0c-.69.06-.72.26-.72,1.5v2.58c0,1.92.6,3.18,2.42,3.18s2.39-1.36,2.39-3.17Z" fill="#7b775f"/><path d="M61.31,20.49c0,1.25,0,1.41.79,1.49l.32,0c.07.05,0,.26,0,.29l-1.55,0c-.5,0-.93,0-1.45,0a.21.21,0,0,1,0-.29l.25,0c.69-.1.71-.24.71-1.49v-4.4c0-1,0-1.22-.56-1.28l-.43-.05a.19.19,0,0,1,0-.29,17.48,17.48,0,0,1,2.36-.1,4.27,4.27,0,0,1,2.29.48,2.06,2.06,0,0,1,1,1.79,2,2,0,0,1-1.19,1.89,4.07,4.07,0,0,1-1.65.36c-.08,0-.08-.21,0-.24a1.85,1.85,0,0,0,1.75-2A1.76,1.76,0,0,0,62,14.74c-.63,0-.64,0-.64.43Z" fill="#7b775f"/><path d="M67,16.2c0-1.25,0-1.42-.73-1.51l-.19,0a.24.24,0,0,1,0-.3c.52,0,.92,0,1.41,0h2.24a14.22,14.22,0,0,0,1.61,0,11.8,11.8,0,0,1,.2,1.59.24.24,0,0,1-.3,0c-.18-.56-.29-1-.91-1.13a5.69,5.69,0,0,0-1.16-.07h-.86c-.35,0-.35,0-.35.47v2.39c0,.33,0,.33.39.33h.69a4.43,4.43,0,0,0,1-.07c.14,0,.22-.12.28-.42l.1-.49a.23.23,0,0,1,.31,0c0,.28-.05.75-.05,1.2s.05.88.05,1.15a.24.24,0,0,1-.31,0l-.11-.47a.51.51,0,0,0-.37-.45,3.86,3.86,0,0,0-.92-.06h-.69c-.36,0-.39,0-.39.32v1.68c0,.64,0,1,.22,1.24s.4.28,1.45.28a3.48,3.48,0,0,0,1.52-.18A3,3,0,0,0,72,20.57a.22.22,0,0,1,.3.09,10.64,10.64,0,0,1-.54,1.65l-3.19,0H67.5l-1.62,0a.21.21,0,0,1,0-.29l.39,0c.68-.06.74-.24.74-1.49Z" fill="#7b775f"/><path d="M9.36,29.7c0,.32,0,.32.39.32h.81a4.49,4.49,0,0,0,1-.07c.13-.05.22-.11.3-.42l.1-.47c.06-.07.27-.07.31,0,0,.28,0,.76,0,1.2s0,.88,0,1.16c0,.07-.22.07-.31,0L11.86,31a.57.57,0,0,0-.38-.45,3.86,3.86,0,0,0-.92-.06H9.75c-.36,0-.39,0-.39.32v1.66c0,1.25,0,1.43.73,1.49l.4,0c.07,0,0,.26,0,.3-.71,0-1.11,0-1.59,0s-.93,0-1.49,0a.24.24,0,0,1,0-.3l.3,0c.69-.08.71-.24.71-1.49V28.13c0-1.25,0-1.42-.71-1.51l-.2,0c-.07-.05,0-.26,0-.3.5,0,.9,0,1.38,0h2.2a14.54,14.54,0,0,0,1.61,0c0,.55,0,1.12,0,1.58a.21.21,0,0,1-.28,0c-.1-.53-.24-1-.84-1.13a5.23,5.23,0,0,0-1.16-.07H9.72c-.36,0-.36,0-.36.48Z" fill="#7b775f"/><path d="M15.05,28.15c0-1.26,0-1.47-.73-1.53l-.29,0c-.08-.05,0-.26,0-.3.6,0,1,0,1.5,0s.88,0,1.48,0c.07,0,.1.25,0,.3l-.29,0c-.71.06-.73.27-.73,1.53V32.4c0,1.26,0,1.43.73,1.51l.29,0c.08,0,.05.26,0,.3-.6,0-1,0-1.48,0s-.9,0-1.5,0a.23.23,0,0,1,0-.3l.29,0c.71-.08.73-.25.73-1.51Z" fill="#7b775f"/><path d="M25.75,32.18c0,.36,0,1.78,0,2.09a.23.23,0,0,1-.23.13c-.14-.2-.49-.62-1.53-1.8l-2.76-3.15c-.33-.37-1.14-1.35-1.39-1.61h0a2.94,2.94,0,0,0-.06.78v2.6A9.37,9.37,0,0,0,20,33.68c.08.14.31.21.61.23L21,34a.23.23,0,0,1,0,.3c-.54,0-1,0-1.4,0s-.82,0-1.24,0a.23.23,0,0,1,0-.3l.32,0c.28,0,.47-.11.52-.24a11.26,11.26,0,0,0,.16-2.45V27.77a1.11,1.11,0,0,0-.26-.86,1.33,1.33,0,0,0-.74-.29l-.2,0a.2.2,0,0,1,0-.3c.5,0,1.13,0,1.35,0a3.16,3.16,0,0,0,.55,0,15.93,15.93,0,0,0,2,2.63l1.15,1.3c.83.91,1.41,1.58,2,2.15h0a1.15,1.15,0,0,0,.05-.5V29.33A8.29,8.29,0,0,0,25,26.86c-.07-.1-.26-.18-.74-.24l-.2,0c-.08-.07-.07-.26,0-.3.55,0,1,0,1.41,0s.82,0,1.23,0a.22.22,0,0,1,0,.3l-.16,0c-.39.06-.62.16-.67.26a9.65,9.65,0,0,0-.18,2.45Z" fill="#7b775f"/><path d="M32.25,31.44c-.08-.26-.13-.3-.48-.3H30c-.29,0-.36,0-.45.29l-.42,1.25a5.21,5.21,0,0,0-.26,1c0,.15.06.22.35.24l.39,0a.2.2,0,0,1,0,.3c-.31,0-.68,0-1.24,0-.4,0-.83,0-1.15,0a.24.24,0,0,1,0-.3l.39,0a.79.79,0,0,0,.72-.58c.21-.55.55-1.33,1.05-2.66l1.21-3.22a1.79,1.79,0,0,0,.21-.85,1.37,1.37,0,0,0,.62-.45.17.17,0,0,1,.18.11c.15.52.34,1.07.52,1.59l1.63,4.8c.35,1,.5,1.2,1,1.26L35,34a.24.24,0,0,1,0,.3c-.49,0-.91,0-1.44,0s-1,0-1.38,0a.21.21,0,0,1,0-.3l.35,0c.25,0,.41-.09.41-.21a2.21,2.21,0,0,0-.15-.64Zm-2.36-1.06c-.09.28-.08.29.25.29h1.47c.35,0,.37-.05.26-.37l-.64-1.95A7.88,7.88,0,0,0,31,27.6h0c0,.06-.15.35-.28.71Z" fill="#7b775f"/><path d="M43,32.18c0,.36,0,1.78,0,2.09a.2.2,0,0,1-.22.13c-.15-.2-.49-.62-1.53-1.8l-2.77-3.15c-.32-.37-1.13-1.35-1.38-1.61h0a2.94,2.94,0,0,0-.06.78v2.6a9.37,9.37,0,0,0,.21,2.46c.07.14.31.21.61.23l.37,0a.23.23,0,0,1,0,.3c-.54,0-1,0-1.4,0s-.82,0-1.24,0a.22.22,0,0,1,0-.3l.32,0c.27,0,.46-.11.52-.24a11.26,11.26,0,0,0,.16-2.45V27.77a1.11,1.11,0,0,0-.26-.86,1.33,1.33,0,0,0-.74-.29l-.21,0a.21.21,0,0,1,0-.3c.5,0,1.13,0,1.35,0a3,3,0,0,0,.54,0,17.09,17.09,0,0,0,2,2.63l1.16,1.3c.82.91,1.41,1.58,2,2.15h0a1.15,1.15,0,0,0,0-.5V29.33a8.29,8.29,0,0,0-.24-2.47c-.07-.1-.26-.18-.74-.24l-.2,0c-.08-.07-.07-.26,0-.3.55,0,1,0,1.41,0s.82,0,1.23,0a.22.22,0,0,1,0,.3l-.17,0c-.38.06-.61.16-.66.26A9.22,9.22,0,0,0,43,29.33Z" fill="#7b775f"/><path d="M46.71,27.16a5.11,5.11,0,0,1,3.21-1,9.52,9.52,0,0,1,2.12.28.83.83,0,0,0,.33.05c0,.28.07,1,.17,1.75a.26.26,0,0,1-.33,0,2.15,2.15,0,0,0-2.44-1.74,3.26,3.26,0,0,0-3.37,3.62C46.4,32.65,48,34,49.94,34a2.54,2.54,0,0,0,2.49-1.71.27.27,0,0,1,.31,0A4.46,4.46,0,0,1,52.17,34a1.86,1.86,0,0,0-.42.12,7.27,7.27,0,0,1-1.88.27,5.17,5.17,0,0,1-3-.8,3.84,3.84,0,0,1-1.7-3.28A4,4,0,0,1,46.71,27.16Z" fill="#7b775f"/><path d="M54.76,28.15c0-1.26,0-1.47-.73-1.53l-.3,0c-.07-.05,0-.26,0-.3.59,0,1,0,1.5,0s.88,0,1.48,0a.24.24,0,0,1,0,.3l-.29,0c-.71.06-.73.27-.73,1.53V32.4c0,1.26,0,1.43.73,1.51l.29,0c.07,0,.05.26,0,.3-.6,0-1,0-1.48,0s-.91,0-1.5,0a.24.24,0,0,1,0-.3l.3,0c.71-.08.73-.25.73-1.51Z" fill="#7b775f"/><path d="M59,28.13c0-1.24,0-1.42-.72-1.51l-.19,0c-.08-.05-.05-.26,0-.3.51,0,.92,0,1.41,0H61.8a14.33,14.33,0,0,0,1.61,0,14.47,14.47,0,0,1,.19,1.59.24.24,0,0,1-.3,0c-.18-.56-.29-1-.91-1.13a5.64,5.64,0,0,0-1.15-.07h-.86c-.36,0-.36,0-.36.48v2.38c0,.33,0,.33.4.33h.69a4.27,4.27,0,0,0,1-.07c.14,0,.23-.12.29-.41l.09-.49a.22.22,0,0,1,.31,0c0,.28-.05.75-.05,1.2s.05.88.05,1.15a.24.24,0,0,1-.31,0l-.11-.47a.5.5,0,0,0-.36-.45,3.91,3.91,0,0,0-.92-.06h-.69c-.36,0-.4,0-.4.32v1.68c0,.64,0,1,.23,1.24s.39.28,1.44.28a3.51,3.51,0,0,0,1.53-.18,3.08,3.08,0,0,0,.84-1.16.22.22,0,0,1,.3.09,11.13,11.13,0,0,1-.53,1.66c-1.08,0-2.14,0-3.2,0H59.56c-.52,0-.92,0-1.63,0a.24.24,0,0,1,0-.3l.39,0c.68-.06.74-.24.74-1.49Z" fill="#7b775f"/><path d="M66.26,28.14c0-1.13,0-1.34-.52-1.4l-.38,0a.19.19,0,0,1,0-.3c.67-.06,1.49-.1,2.66-.1a4.2,4.2,0,0,1,2,.36,1.79,1.79,0,0,1,1,1.67,2.22,2.22,0,0,1-1.49,2c-.06.07,0,.19.06.29A12.75,12.75,0,0,0,72,33.78a1.44,1.44,0,0,0,.83.33.1.1,0,0,1,0,.17,1.75,1.75,0,0,1-.53.06c-1,0-1.62-.3-2.46-1.5-.31-.44-.8-1.27-1.17-1.8a.86.86,0,0,0-.85-.38c-.54,0-.56,0-.56.26v1.5c0,1.25,0,1.4.72,1.49l.25,0a.24.24,0,0,1,0,.3c-.53,0-.94,0-1.42,0s-.93,0-1.49,0a.24.24,0,0,1,0-.3l.3,0c.69-.08.71-.24.71-1.49Zm1,1.7a.87.87,0,0,0,0,.4,2.28,2.28,0,0,0,.82.06A2,2,0,0,0,69.33,30a1.72,1.72,0,0,0,.59-1.48A1.76,1.76,0,0,0,68,26.67c-.73,0-.77,0-.77.38Z" fill="#7b775f"/><line x1="80.44" y1="13.27" x2="80.44" y2="35.9" fill="none" stroke="#7b775f" stroke-miterlimit="10" stroke-width="0.37"/></svg>